<?xml version="1.0" ?><!DOCTYPE svg  PUBLIC '-//W3C//DTD SVG 1.1//EN'  'http://www.w3.org/Graphics/SVG/1.1/DTD/svg11.dtd'><svg enable-background="new 0 0 512 512" height="512px" id="Layer_1" version="1.1" viewBox="0 0 512 512" width="512px" xml:space="preserve" xmlns="http://www.w3.org/2000/svg" xmlns:xlink="http://www.w3.org/1999/xlink"><path d="M459.851,452.083c-16.812,2.694-33.248,7.245-49.852,10.944c-7.43,1.666-15.146,2.191-22.63,3.603  c-4.393,0.837-8.96,2.384-13.487,3.005c1.387-0.438,2.639-0.82,3.508-1.155c5.811-2.24,11.868-3.747,17.823-5.524  c9.82-2.917,20.15-4.36,28.839-10.139c2.392-1.595,1.794-6.298-1.609-5.947c-9.797,1.021-19.801,2.352-29.518,4.042  c-10.904,1.897-21.506,5.197-32.387,7.182c-1.442,0.255-2.885,0.511-4.336,0.781c6.752-1.913,13.503-3.874,20.111-6.233  c3.3-1.18,9.158-2.694,8.401-7.254c-0.231-1.354-1.77-2.375-3.077-2.344c-10.889,0.312-21.578,3.468-32.322,5.07  c-5.477,0.812-10.953,1.562-16.405,2.375c1.323-0.686,2.432-1.538,3.029-2.646c1.021-1.913-0.207-5.085-2.758-4.799  c-22.989,2.631-45.643,7.062-68.241,11.83c2.894-1.363,5.604-3.021,8.012-5.109c2.152-1.874,0.398-5.461-2.248-5.445  c-10.578,0.072-21.307,2.28-31.829,3.412c-11.996,1.308-23.905,3.34-35.694,5.851c-4.105,0.869-8.242,1.666-12.379,2.439  c4.408-1.347,8.8-2.718,13.168-4.161c3.945-1.307,2.312-6.863-1.697-6.153c-9.063,1.61-18.342,2.064-27.445,3.515  c-9.692,1.539-19.114,4.504-28.664,6.688c-2.622,0.605-5.253,1.188-7.883,1.777c6.552-2.145,13.057-4.44,19.266-7.421  c2.87-1.379,1.482-6.106-1.609-5.947c-6.409,0.327-12.467,2.567-18.701,3.938c-6.823,1.498-13.582,2.886-20.326,4.623  c0.184-1.722-0.821-3.556-3.053-3.46c-8.426,0.367-17.473,3.109-25.444,5.764c-7.006,2.327-15.528,3.26-21.434,7.923  c-1.865,1.459-0.797,4.887,1.403,5.325c4.528,0.916,8.832-0.67,13.168-1.873c7.564-2.104,15.543-3.492,23.299-4.703  c1.092-0.176,2.184-0.367,3.268-0.574c-2.639,0.949-5.277,1.873-7.947,2.702c-4.607,1.443-9.23,2.527-13.423,5.006  c-1.85,1.093-2.288,4.528,0,5.5c6.424,2.719,13.216-0.693,19.465-2.894c10.251-3.587,21.865-5.293,32.467-7.684  c5.875-1.315,11.726-2.719,17.592-4.098c-9.852,3.069-19.633,6.337-29.229,10.123c-3.141,1.236-3.005,6.409,0.845,6.258  c5.269-0.199,10.234-1.371,15.232-2.989c6.002-1.929,11.829-3.476,18.007-4.814c12.204-2.646,24.432-5.229,36.755-7.254  c12.961-2.12,25.667-5.165,38.739-6.759c5.58-0.694,11.16-1.451,16.731-2.113c-0.358,0.08-0.741,0.176-1.092,0.239  c-6.951,1.268-13.702,3.412-20.661,4.68c-6.122,1.115-12.442,4.145-18.365,6.121c-5.604,1.874-11.646,2.759-16.819,5.684  c-3.332,1.873-0.94,6.409,2.455,5.819c30.856-5.349,61.33-12.897,92.082-18.772c-6.289,1.683-12.586,3.396-18.74,5.469  c-3.283,1.107-6.527,2.319-9.78,3.507c-5.771,1.132-11.51,2.503-16.284,5.253c-3.213,1.825-1.021,6.648,2.446,5.819  c5.532-1.323,10.889-3.188,16.222-5.126c4.129-0.772,8.25-1.419,11.933-2.375c11.757-3.077,23.618-5.747,35.606-7.796  c11.295-1.929,22.447-4.248,33.822-5.835c0.358-0.048,0.709-0.111,1.052-0.159c-16.197,4.583-32.075,9.82-48.05,15.145  c-2.407,0.806-3.404,4.536-0.758,5.827c4.855,2.352,13.129-1.387,17.943-2.591c11.869-2.973,23.93-4.949,35.966-7.142  c11.462-2.081,22.798-4.592,34.164-6.903c-5.707,1.913-11.526,3.452-17.178,5.708c-3.133,1.259-6.855,1.896-9.056,4.639  c-1.594,2.001-0.932,4.376,1.403,5.333c5.994,2.455,12.156,1.467,18.278,0c9.397-2.256,18.875-3.771,28.473-4.99  c8.401-1.061,16.843-3.786,25.076-5.755c9.295-2.224,18.613-4.32,28.059-5.827C465.598,457.583,463.868,451.445,459.851,452.083z" fill="#B3B3B3"/><g><path d="M251.023,446.471c-27.66,0-54.913-1.1-84.351-14.419c-20.685-9.351-44.821-28.035-64.582-49.955   c-9.852-10.937-17.783-20.598-24.511-32.212l-2.208-3.786c-5.955-10.203-12.706-21.769-16.508-32.594   c-2.742-7.819-6.01-19.489-6.01-30.633c0-7.461,0.494-15.073,0.973-22.438c0.479-7.357,0.973-14.978,0.973-22.431   c0-22.112,1.578-50.146,13.869-70.792c3.659-6.138,7.071-12.81,10.387-19.25c8.808-17.186,17.927-34.953,32.992-46.479   c8.179-6.273,16.755-10.482,25.835-14.922c3.045-1.49,6.121-3.005,9.23-4.607c11.502-5.962,25.181-12.499,39.496-15.862   l4.273-1.004c20.166-4.767,41.026-9.693,61.855-10.091l0.693-0.016l0.502-0.486c0.957-0.941,2.16-1.451,3.587-1.547   c2.527-0.151,5.054-0.239,7.524-0.239c8.641,0,17.091,0.98,25.117,2.909c3.898,0.941,7.804,1.722,11.574,2.471   c10.027,1.977,19.506,3.85,28.808,8.593c1.515,0.773,3.037,1.499,4.536,2.2c4.822,2.271,9.357,4.408,13.08,8.139   c1.275,1.267,3.396,1.897,5.636,2.566c1.458,0.431,2.965,0.877,3.993,1.459c3.547,1.977,7.078,4.814,10.482,7.564   c2.582,2.072,5.253,4.217,7.939,6.018l1.426,0.94c2.607,1.698,5.062,3.3,6.911,5.667c4.002,5.149,8.673,9.94,13.192,14.571   c4.01,4.105,8.146,8.346,11.75,12.778c10.84,13.312,20.311,28.09,27.349,39.489c7.493,12.084,10.481,27.907,13.128,41.864   l0.072,0.351c2.112,11.151,3.547,21.435,4.527,32.371c2.687,30.298,4.018,59.68-9.023,86.048   c-2.137,4.328-3.985,8.824-5.771,13.168c-3.061,7.453-6.225,15.161-10.872,21.905l-1.507,2.199   c-6.751,9.82-13.718,19.976-22.247,27.771c-33.463,30.617-87.555,49.557-144.691,50.664l-0.726,0.017l-0.51,0.526   c-0.949,0.988-2.225,1.498-3.771,1.506L251.023,446.471z M259.226,64.527c-0.957,0.989-2.225,1.499-3.771,1.499   c-22.773,0-47.133,5.755-65.817,10.769c-15.353,4.121-28.919,10.721-41.481,17.138c-2.646,1.339-5.293,2.575-7.923,3.802   c-6.553,3.061-13.328,6.217-19.482,10.936c-15.567,11.925-24.957,30.338-34.044,48.154c-2.854,5.611-5.556,10.912-8.441,16.006   c-9.518,16.819-10.673,36.803-11.789,56.125c-0.176,3.005-0.343,5.978-0.55,8.919c-0.223,3.244-0.494,6.528-0.765,9.853   c-1.85,22.358-3.747,45.476,6.496,65.57l1.14,2.256c11.367,22.303,22.088,43.395,40.517,62.254   c22.208,22.75,43.067,38.166,62.007,45.866c26.521,10.769,50.696,11.67,75.176,11.678h0.726l0.519-0.519   c0.956-0.956,2.207-1.45,3.714-1.45c25.978,0,49.779-3.771,72.761-11.526c22.383-7.564,50.241-16.971,69.021-35.918   c8.888-8.96,17.138-19.577,24.52-31.534c3.236-5.229,5.596-11.207,7.891-16.994c1.539-3.89,3.133-7.907,4.95-11.574   c12.706-25.698,11.423-54.354,9.207-79.192c-2.2-24.767-4.942-55.583-19.562-77.607c-1.984-2.989-3.978-6.233-6.074-9.669   c-5.738-9.382-11.661-19.083-18.986-25.93c-0.758-0.717-1.619-1.442-2.487-2.184c-2.319-1.961-4.703-3.986-5.883-6.266   c-2.017-3.945-4.719-6.321-7.35-8.617c-1.77-1.554-3.451-3.029-4.981-4.99c-3.874-4.99-9.191-8.386-14.332-11.654   c-3.42-2.184-6.959-4.448-9.932-7.11c-2.065-1.849-4.385-2.383-6.417-2.846c-1.817-0.415-3.38-0.773-4.575-1.969   c-5.461-5.452-12.396-8.736-18.518-11.638c-10.362-4.902-26.305-10.139-39.982-10.139c-4.13,0-8.115-0.51-11.965-1.013   c-3.93-0.502-7.987-1.02-12.268-1.02l-0.741-0.008L259.226,64.527z" fill="#0077BF"/><path d="M261.888,149.356c-5.596,0-10.179-0.518-14.013-1.594c-9.023-2.511-20.087-2.989-29.853-3.403l-2.032-0.088   c-13.583-0.606-27.851-1.802-41.274-3.443c-19.514-2.407-41.968-6.09-60.596-15.146c-3.053-1.482-3.005-3.89-2.71-5.189   c0.566-2.439,2.965-4.958,6.002-4.958c0.909,0,1.841,0.231,2.75,0.669c22.535,10.952,50.107,13.16,74.451,15.089l0.797,0.064   c8.601,0.686,17.408,1.746,25.922,2.766c10.745,1.284,21.849,2.623,32.721,3.229c5.341,0.295,10.833,0.446,16.764,0.446   c16.285,0,32.801-1.132,48.775-2.232l5.572-0.367c2.184-0.159,4.384-0.271,6.576-0.382c9.469-0.495,19.266-1.004,28.528-4.241   c4.782-1.674,9.899-2.471,14.85-3.236c3.946-0.622,8.027-1.259,12.013-2.335l0.422-0.112l0.319-0.311   c0.988-0.933,2.272-1.403,3.802-1.403h2.01c4.168,0,5.148,2.758,5.372,3.954c0.479,2.503-0.741,5.739-4.018,7.038   c-16.102,6.385-34.132,8.25-51.565,10.06c-6.998,0.726-14.244,1.475-21.195,2.511c-8.25,1.228-16.755,1.243-24.973,1.243   c-4.416,0.008-8.983,0.016-13.495,0.208c-2.599,0.111-5.333,0.303-8.131,0.502C271.143,149.021,266.464,149.356,261.888,149.356   L261.888,149.356z" fill="#0077BF"/><path d="M445.98,264.857c-0.327,0-0.661-0.023-1.013-0.072c-10.569-1.617-21.314-1.841-30.441-1.841   c-3.204,0-6.416,0.04-9.637,0.063c-3.205,0.032-6.409,0.064-9.613,0.064c-7.684,0-15.496-0.494-23.037-0.973   c-7.572-0.479-15.407-0.98-23.132-0.98c-14.38,0-28.959-0.494-43.06-0.973c-14.101-0.486-28.688-0.98-43.068-0.98   c-11.326,0-22.661-0.063-33.996-0.127c-11.352-0.072-22.702-0.128-34.053-0.128c-15.09,0-27.604,0.111-39.394,0.366   c-4.416,0.088-8.823,0.224-13.239,0.359c-7.82,0.238-15.911,0.486-23.842,0.486c-5.341,0-10.155-0.112-14.699-0.336   c-5.596-0.278-11.255-0.709-16.723-1.123c-9.326-0.709-18.971-1.443-28.625-1.443c-3.674-0.016-5.316-2.813-5.316-5.579   c0-2.758,1.642-5.548,5.301-5.548c9.302,0.016,18.708,0.717,27.803,1.403c9.079,0.678,18.461,1.387,27.779,1.403h0.988   c8.482,0,17.09-0.215,25.419-0.423c8.299-0.215,16.892-0.43,25.324-0.43h107.865c7.19,0,14.476,0.494,21.538,0.972   c7.11,0.486,14.476,0.98,21.801,0.98c3.898,0,7.828-0.08,11.773-0.159c3.954-0.088,7.915-0.167,11.869-0.167   c6.911,0,12.482,0.263,17.536,0.821c11.407,1.268,22.71,1.435,33.24,1.435c2.973,0,5.946-0.016,8.911-0.024   c2.966-0.016,5.931-0.032,8.88-0.032c12.626,0,26.113,0.271,39.21,2.272c3.706,0.558,3.89,3.443,3.794,4.654   c-0.223,2.981-2.582,6.059-6.138,6.059H445.98z" fill="#0077BF"/><path d="M393.643,397.488c-0.854,0-1.729-0.215-2.599-0.629c-20.59-9.908-45.93-13.567-68.281-16.804l-1.904-0.271   c-24.575-3.556-49.294-3.556-73.207-3.556c-20.757,0-40.078,2.966-60.517,6.114l-6.265,0.964c-3.141,0.479-6.346,0.861-9.582,1.268   c-7.939,0.98-16.149,1.993-23.785,4.28c-7.9,2.359-15.074,4.36-22.894,4.935c-0.167,0.016-0.343,0.024-0.51,0.024   c-3.284,0-4.552-2.487-4.632-4.807c-0.104-2.854,1.539-6.066,5.404-6.346c7.47-0.55,14.962-2.447,22.224-4.272   c5.285-1.331,10.745-2.718,16.078-3.531c10.944-1.674,21.977-3.515,33.733-5.596c23.379-4.161,47.253-4.161,68.305-4.161   c36.659,0,90.193,2.312,131.698,22.288c2.974,1.435,2.926,3.825,2.631,5.133C398.975,394.962,396.624,397.488,393.643,397.488   L393.643,397.488z" fill="#0077BF"/><path d="M180.089,436.993c-0.639,0-1.315-0.144-2.025-0.422c-6.353-2.487-11.071-7.581-14.85-12.236   c-5.062-6.241-10.18-13.694-13.344-19.434c-6.354-11.502-13.399-22.757-20.207-33.646c-2.614-4.161-5.213-8.314-7.787-12.499   c-1.125-1.841-1.531-4.081-1.953-6.456c-0.335-1.85-0.67-3.763-1.396-5.58c-1.634-4.121-3.658-8.322-6.544-13.591   c-3.635-6.632-5.014-14.818-6.345-22.749c-0.327-1.961-0.654-3.898-1.004-5.779c-1.403-7.397-1.268-15.225-1.132-22.789   c0.04-2.272,0.072-4.544,0.072-6.784c0-4.448-0.247-8.976-0.486-13.359c-0.342-6.082-0.693-12.355-0.367-18.397   c0.59-10.92,1.913-21.913,3.188-32.53c1.092-9.071,2.216-18.445,2.894-27.771c0.996-13.774,3.42-33.734,13.017-48.185   c12.013-18.087,27.756-32.204,42.988-44.766c2.901-2.407,6.361-4.599,10.02-6.919c5.022-3.188,10.219-6.48,13.949-10.426   c3.021-3.188,5.676-5.563,8.776-6.743l0.446-0.167l0.295-0.367c0.988-1.228,2.679-1.953,4.504-1.953   c2.766,0,5.557,1.61,5.557,5.229v1.929c0,1.347-0.59,2.734-1.595,3.802c-1.021,1.076-2.327,1.674-3.667,1.674l-0.334-0.008   c-1.635,0-4.871,2.168-14.42,9.637c-1.315,1.028-2.304,1.809-2.703,2.08c-8.154,5.628-15.862,12.148-23.697,18.876   c-13.272,11.43-29.318,26.783-35.695,44.335c-4.623,12.754-5.643,26.353-6.623,39.505c-0.256,3.388-0.511,6.775-0.83,10.139   c-0.494,5.405-1.37,10.992-2.199,16.396c-1.562,10.052-3.173,20.446-2.71,30.721c0.287,6.393,0.167,13.176,0.056,19.737   c-0.231,12.913-0.463,26.265,2.231,38.572c2.009,9.15,5.205,17.688,8.306,25.938c2.256,5.994,4.592,12.196,6.434,18.572   c1.314,4.544,4.097,8.267,6.783,11.861c2.224,2.981,4.328,5.787,5.651,9.023c2.392,5.795,5.724,10.657,8.936,15.353   c1.538,2.248,3.116,4.56,4.599,6.975c1.459,2.375,3.173,4.631,4.815,6.823c2.438,3.236,4.734,6.305,6.345,9.701   c2.639,5.604,6.815,13.304,12.643,15.575c3.419,1.339,4.112,4.56,3.666,6.903C183.979,434.729,182.647,436.993,180.089,436.993   L180.089,436.993z" fill="#0077BF"/><path d="M242.415,448.121c-2.759,0-5.859-1.689-6.178-5.412c-0.639-7.604-8.736-21.857-12.93-28.338   c-4.049-6.241-6.433-12.801-8.959-19.752c-0.494-1.348-0.988-2.719-1.499-4.105c-1.603-4.28-3.97-8.394-6.249-12.371   c-2.902-5.054-5.898-10.267-7.206-15.703c-1.116-4.575-2.535-9.15-3.897-13.582c-1.388-4.488-2.822-9.144-3.914-13.719   c-4.217-17.688-4.169-35.01-4.129-53.335l0.008-5.675c0-6.593-0.207-13.432-0.415-20.04c-0.438-14.101-0.9-28.68,0.63-42.422   c0.55-5.006,1.188-9.988,1.825-14.97c0.773-6.01,1.57-12.244,2.192-18.405c0.438-4.232,1.929-8.067,3.508-12.124   c1.092-2.806,2.215-5.708,2.965-8.752c2.216-9.055,4.727-18.604,7.892-30.043c1.275-4.647,3.587-8.649,6.018-12.866   c1.522-2.638,3.101-5.372,4.416-8.29c1.093-2.416,2.12-4.799,3.141-7.158c4.799-11.088,9.335-21.562,18.262-30.824   c1.371-1.435,2.185-3.236,2.966-4.99c0.797-1.802,1.546-3.491,2.869-4.814c4.727-4.735,8.386-7.597,14.165-9.231   c0.573-0.167,1.14-0.255,1.674-0.255c3.021,0,4.751,2.599,5.094,5.014c0.311,2.272-0.526,5.038-3.826,5.97   c-7.317,2.065-8.688,4.703-10.331,8.848c-0.51,1.307-1.044,2.646-1.953,4.193c-1.442,2.487-3.379,4.687-5.428,7.022   c-2.527,2.878-5.134,5.859-6.808,9.438c-2.112,4.536-4.544,9.063-7.126,13.87c-4.711,8.784-9.581,17.863-12.395,26.982   c-2.56,8.273-4.521,16.285-6.601,24.774l-0.446,1.81c-0.733,2.997-1.881,5.93-3.101,9.039c-1.93,4.926-3.922,10.02-4.153,15.392   c-0.343,8.011-1.107,16.07-1.85,23.85c-1.012,10.634-2.048,21.626-2.048,32.729v61.569c0,14.683,3.459,27.476,7.134,41.011   c1.147,4.217,2.304,8.481,3.363,12.865c1.762,7.262,5.381,13.814,8.889,20.159c1.092,1.984,2.184,3.97,3.212,5.962   c1.634,3.141,2.662,6.553,3.755,10.172c1.354,4.487,2.758,9.135,5.404,13.231c10.537,16.245,16.261,29.087,17.018,38.158   c0.128,1.498-0.23,2.71-1.052,3.603C245.436,447.571,244.009,448.121,242.415,448.121L242.415,448.121z" fill="#0077BF"/><path d="M273.167,442.278c-1.626,0-3.077-0.558-3.953-1.53c-0.79-0.846-1.116-1.993-0.997-3.412   c0.749-8.8,6.473-21.274,16.995-37.073c2.662-3.993,4.064-8.514,5.42-12.89c1.092-3.507,2.12-6.823,3.746-9.884   c1.028-1.929,2.12-3.851,3.213-5.779c3.499-6.178,7.134-12.57,8.896-19.633c1.06-4.265,2.216-8.417,3.355-12.515   c3.683-13.176,7.158-25.619,7.158-39.919v-59.887c0-10.801-1.052-21.506-2.057-31.844c-0.749-7.573-1.507-15.4-1.857-23.196   c-0.223-5.245-2.224-10.203-4.152-15.001c-1.212-3.013-2.368-5.875-3.101-8.784l-0.439-1.762   c-2.08-8.242-4.049-16.038-6.607-24.097c-2.822-8.872-7.692-17.711-12.403-26.249c-2.574-4.679-5.014-9.095-7.126-13.495   c-1.674-3.5-4.288-6.393-6.808-9.191c-2.048-2.272-3.978-4.416-5.437-6.823c-0.9-1.499-1.426-2.806-1.944-4.073   c-1.634-4.042-3.013-6.616-10.322-8.625c-3.269-0.901-4.113-3.54-3.826-5.708c0.318-2.343,2.048-4.878,5.102-4.878   c0.534,0,1.1,0.088,1.682,0.239c5.795,1.602,9.445,4.392,14.165,8.991c1.322,1.275,2.072,2.926,2.869,4.671   c0.781,1.706,1.594,3.467,2.965,4.862c8.928,9.007,13.464,19.194,18.254,29.971c1.021,2.288,2.057,4.607,3.141,6.967   c1.323,2.838,2.902,5.492,4.416,8.051c2.432,4.113,4.735,7.995,6.019,12.515c3.165,11.128,5.667,20.406,7.892,29.214   c0.741,2.966,1.881,5.795,2.973,8.521c1.57,3.938,3.062,7.668,3.492,11.781c0.637,5.979,1.426,12.036,2.191,17.895   c0.638,4.854,1.275,9.701,1.834,14.563c1.521,13.36,1.067,27.541,0.621,41.243c-0.199,6.433-0.414,13.088-0.414,19.505l0.008,5.517   c0.048,17.831,0.088,34.666-4.129,51.859c-1.092,4.448-2.52,8.968-3.914,13.344c-1.363,4.312-2.773,8.76-3.882,13.216   c-1.315,5.27-4.312,10.339-7.206,15.241c-2.287,3.874-4.655,7.892-6.249,12.061c-0.519,1.339-1.021,2.67-1.507,3.993   c-2.527,6.751-4.91,13.136-8.951,19.194c-4.193,6.297-12.308,20.183-12.945,27.596   C279.042,440.637,275.925,442.278,273.167,442.278L273.167,442.278z" fill="#0077BF"/><path d="M297.479,439.17c-2.064-0.008-4.2-1.244-5.309-3.102c-0.701-1.155-1.268-3.028-0.023-5.348   c2.335-4.353,6.775-6.266,11.47-8.282l2.033-0.885c11.111-4.942,19.896-8.856,27.373-19.944   c4.072-6.018,9.238-11.335,14.244-16.468c7.341-7.557,14.953-15.368,19.568-25.795c7.158-16.181,11.662-32.992,15.457-48.743   c4.67-19.394,5.077-38.62,4.806-56.507c-0.303-20.318-3.738-40.908-7.062-60.836l-0.646-3.842   c-2.766-16.636-6.178-34.101-14.539-48.64c-1.195-2.089-2.327-4.32-3.523-6.688c-3.308-6.528-6.72-13.28-12.115-17.855   c-2.232-1.89-4.153-4.735-6.027-7.477c-2.438-3.595-4.965-7.31-8.457-9.446c-5.979-3.659-11.479-8.521-16.779-13.232   c-8.401-7.429-17.09-15.122-28.289-18.764c-2.519-0.837-4.161-2.949-4.161-5.396v-1.458c0-3.667,2.79-5.309,5.54-5.309   c1.984,0,3.738,0.845,4.711,2.264l0.295,0.438l0.486,0.2c11.854,4.87,22.016,13.503,31.837,21.841   c3.834,3.252,7.779,6.608,11.765,9.677c13.432,10.347,23.085,26.042,31.812,41.227c16.469,28.632,19.992,61.919,23.404,94.115   c0.709,6.736,1.426,13.463,2.256,20.127c0.893,7.206,0.59,14.738,0.286,22.017c-0.144,3.683-0.295,7.477-0.295,11.207v2.16   c0.009,8.585,0.024,16.691-2.415,24.989c-1.706,5.843-3.156,11.877-4.56,17.712c-2.894,12.084-5.891,24.583-11.415,35.822   c-7.938,16.189-18.572,30.489-34.459,46.376c-2.67,2.67-4.75,5.197-6.751,7.637c-4.002,4.878-7.453,9.07-14.244,12.467   c-1.308,0.661-3.611,1.482-6.05,2.335c-7.939,2.806-14.157,5.229-16.015,8.681C300.476,438.691,298.73,439.17,297.479,439.17   L297.479,439.17z" fill="#0077BF"/></g></svg>